<?xml version="1.0" encoding="UTF-8"?>
<svg width="24px" height="24px" viewBox="0 0 24 24" version="1.1" xmlns="http://www.w3.org/2000/svg">
    <g stroke="none" stroke-width="1" fill="none" fill-rule="evenodd">
        <path d="M12,3 C16.418278,3 20,4.34314575 20,6 C20,7.65685425 16.418278,9 12,9 C7.581722,9 4,7.65685425 4,6 C4,4.34314575 7.581722,3 12,3 Z M12,11 C16.418278,11 20,12.3431458 20,14 C20,15.6568542 16.418278,17 12,17 C7.581722,17 4,15.6568542 4,14 C4,12.3431458 7.581722,11 12,11 Z M12,19 C16.418278,19 20,20.3431458 20,22 C20,23.6568542 16.418278,25 12,25 C7.581722,25 4,23.6568542 4,22 C4,20.3431458 7.581722,19 12,19 Z" fill="#409EFF"></path>
    </g>
</svg> 